<svg id="Group_45" data-name="Group 45" xmlns="http://www.w3.org/2000/svg" width="87.136" height="31.036" viewBox="0 0 87.136 31.036">
  <path id="Path_33" data-name="Path 33" d="M328.194,290.2c10.224,0,20.453.193,30.671-.064A17.351,17.351,0,0,1,376.291,303.4c1.35,5.5,3,10.925,4.574,16.366.337,1.161.036,1.4-1.094,1.4q-32.557-.034-65.114-.022A16.829,16.829,0,0,1,298.851,308.9q-2.36-8.768-4.87-17.495c-.292-1.02-.091-1.232.94-1.229C306.012,290.212,317.1,290.2,328.194,290.2Zm15.657,26.129c9.923,0,19.845-.014,29.768.02,1.013,0,1.242-.179.941-1.206-1.117-3.819-2.112-7.673-3.208-11.5a11.924,11.924,0,0,0-11.327-8.718q-29.507-.039-59.016-.034c-.945,0-1.043.268-.811,1.086,1.077,3.785,2.1,7.586,3.161,11.375a11.833,11.833,0,0,0,11.894,8.971Q329.553,316.337,343.851,316.329Z" transform="translate(-293.859 -290.131)"/>
  <path id="Path_34" data-name="Path 34" d="M366.766,305.188c0-1.595.048-3.008-.017-4.416-.043-.927.525-.784,1.083-.8.6-.018,1.059-.049,1.05.832-.042,4.332-.016,8.664-.026,13,0,.306.167.808-.361.806-.564,0-1.417.387-1.641-.243-.287-.808-.5-.361-.839-.174-2.659,1.469-5.268.051-5.452-2.992a30.075,30.075,0,0,1,0-3.507c.181-3.171,2.9-4.538,5.633-2.857Zm-4.174,4.254c.035.472.04.948.112,1.415a1.993,1.993,0,0,0,3.967.041,8.828,8.828,0,0,0,0-2.959,1.994,1.994,0,0,0-3.967.084C362.625,308.49,362.626,308.967,362.592,309.443Z" transform="translate(-310.537 -292.592)"/>
  <path id="Path_35" data-name="Path 35" d="M383.856,311.946c0,.951,0,1.9,0,2.854,0,1.112-1.035,1.778-1.889,1.074-.49-.4-.625-.241-1.047-.074a4.2,4.2,0,0,1-4.407-.538,2.865,2.865,0,0,1-.94-3.167,2.779,2.779,0,0,1,2.484-2.154c.852-.112,1.728-.03,2.589-.091.4-.028,1.047.305,1.089-.5.038-.693.107-1.464-.756-1.733a3.193,3.193,0,0,0-2.881.172c-.995.7-1.392-.249-1.766-.654-.522-.567.289-.886.652-1.069a5.8,5.8,0,0,1,5.587.091,2.505,2.505,0,0,1,1.254,2.286c.029,1.167.007,2.335.007,3.5Zm-4.176,2.232a7.028,7.028,0,0,0,1.255-.194c.826-.28.8-1.019.815-1.716.007-.365-.016-.715-.514-.7a11.981,11.981,0,0,0-2.824.132,1.112,1.112,0,0,0-.946,1.068,1.158,1.158,0,0,0,.924,1.234A7.744,7.744,0,0,0,379.68,314.178Z" transform="translate(-314.272 -293.95)"/>
  <path id="Path_36" data-name="Path 36" d="M337.541,310.938c0,1.34.022,2.68-.013,4.019-.01.371.286.993-.38,1.047-.556.045-1.348.385-1.655-.236-.283-.577-.4-.419-.8-.206-2.806,1.512-5.44.016-5.513-3.145-.047-1.988.025-3.978-.029-5.965-.022-.814.35-.912,1.014-.887.635.024,1.183-.061,1.146.9-.067,1.726-.038,3.457-.01,5.186.024,1.566.8,2.444,2.083,2.422,1.213-.021,1.983-.867,2.025-2.37.049-1.727.065-3.46,0-5.185-.037-.892.366-.956,1.078-.958s1.122.094,1.08.972C337.49,308,337.541,309.469,337.541,310.938Z" transform="translate(-302.689 -293.991)"/>
  <path id="Path_37" data-name="Path 37" d="M345.265,310.716c0-1.385-.017-2.771.01-4.156.007-.373-.231-1.039.465-.962.537.059,1.385-.565,1.6.452.128.6.306.289.564.15,3.124-1.693,5.683-.2,5.7,3.33.009,1.818-.03,3.638.017,5.455.02.747-.113,1.112-.975,1.056-.717-.046-1.218-.017-1.164-1.015.093-1.683.043-3.376.019-5.064-.022-1.523-.732-2.345-1.988-2.38-1.322-.037-2.115.807-2.144,2.366-.031,1.731-.052,3.465.01,5.2.03.825-.349.909-1.006.887-.632-.022-1.183.067-1.132-.9C345.323,313.663,345.265,312.188,345.265,310.716Z" transform="translate(-306.716 -293.967)"/>
  <path id="Path_38" data-name="Path 38" d="M320.919,310.209c0,1.21-.04,2.422.012,3.63.043.975-.628.706-1.134.737-.531.032-1.009.082-.992-.75.047-2.333-.018-4.668.034-7,.019-.828-.18-1.212-1.065-1.107-.455.054-.9.094-1.1-.574-.239-.78-.182-1.188.731-1.024,1.253.226,1.458-.368,1.452-1.485a3.061,3.061,0,0,1,4.187-2.695c.6.29.241.923.292,1.4.061.577-.382.533-.784.572-.624.061-1.485-.308-1.62.775-.111.888-.092,1.631,1.19,1.457.439-.06,1.188-.376,1.239.613.034.679-.1,1.126-.89.969-1.4-.279-1.691.4-1.567,1.635C321,308.3,320.919,309.258,320.919,310.209Z" transform="translate(-299.537 -292.523)"/>
</svg>
