<svg xmlns="http://www.w3.org/2000/svg" xmlns:xlink="http://www.w3.org/1999/xlink" width="93.045" height="27.253" viewBox="0 0 93.045 27.253">
  <defs>
    <linearGradient id="linear-gradient" x1="-0.37" y1="-0.201" x2="1.089" y2="1.106" gradientUnits="objectBoundingBox">
      <stop offset="0" stop-color="#005" stop-opacity="0.502"/>
      <stop offset="0.251" stop-color="#005" stop-opacity="0.502"/>
      <stop offset="0.733" stop-color="#005" stop-opacity="0"/>
      <stop offset="1" stop-color="#005" stop-opacity="0"/>
    </linearGradient>
  </defs>
  <g id="kolibri_software_logo_white_" transform="translate(-0.3 -0.6)">
    <g id="Group_608" data-name="Group 608" transform="translate(29.827 5.482)" opacity="0.95">
      <path id="Path_747" data-name="Path 747" d="M63.8,13.9h2.418v18H63.8Zm2.7,8.463L73.146,13.9h2.976l-6.835,8.416L76.215,31.9H73.193Z" transform="translate(-63.8 -12.598)" fill="rgba(0,0,85,0.5)"/>
      <path id="Path_748" data-name="Path 748" d="M93.483,37.122a5.3,5.3,0,0,1-2.139-2.371A7.1,7.1,0,0,1,90.6,31.4a7.231,7.231,0,0,1,.744-3.348,5.862,5.862,0,0,1,2.139-2.371,6.4,6.4,0,0,1,3.348-.883,6.214,6.214,0,0,1,3.348.883,5.682,5.682,0,0,1,2.185,2.371,7.1,7.1,0,0,1,.744,3.348,7.23,7.23,0,0,1-.744,3.348,5.947,5.947,0,0,1-2.185,2.371,6.105,6.105,0,0,1-3.348.883A6.874,6.874,0,0,1,93.483,37.122Zm6.184-2.371a4.841,4.841,0,0,0,1.023-3.3,4.762,4.762,0,0,0-1.023-3.3,4.156,4.156,0,0,0-5.766,0,4.841,4.841,0,0,0-1.023,3.3,4.762,4.762,0,0,0,1.023,3.3,3.588,3.588,0,0,0,2.883,1.162A3.525,3.525,0,0,0,99.667,34.751Z" transform="translate(-78.138 -18.43)" fill="rgba(0,0,85,0.5)"/>
      <path id="Path_749" data-name="Path 749" d="M123.29,29.746a3.2,3.2,0,0,1-.79-2.139V11.1h2.325V26.259a6.708,6.708,0,0,0,.14,1.627,1.066,1.066,0,0,0,.558.7,3.185,3.185,0,0,0,1.348.186l-.325,1.86H125.8A3.114,3.114,0,0,1,123.29,29.746Z" transform="translate(-95.205 -11.1)" fill="rgba(0,0,85,0.5)"/>
      <path id="Path_750" data-name="Path 750" d="M135.6,13.9h2.325v2.557H135.6Zm0,5.394h2.325V31.9H135.6Z" transform="translate(-102.214 -12.598)" fill="rgba(0,0,85,0.5)"/>
      <path id="Path_751" data-name="Path 751" d="M156.407,18.447a5.679,5.679,0,0,1,2,2.418,7.724,7.724,0,0,1,.7,3.255,7.171,7.171,0,0,1-.744,3.3,6.04,6.04,0,0,1-2.046,2.371,4.91,4.91,0,0,1-2.883.883,5.2,5.2,0,0,1-2.232-.465,4.288,4.288,0,0,1-1.674-1.3l-.279,1.534H147.2V11.1h2.325v8.137a5.313,5.313,0,0,1,1.72-1.255,5.284,5.284,0,0,1,5.161.465Zm-.651,8.835a5.259,5.259,0,0,0,.976-3.208,5.072,5.072,0,0,0-.976-3.208,3.152,3.152,0,0,0-2.6-1.255,3.361,3.361,0,0,0-2.65,1.162,4.9,4.9,0,0,0-1.069,3.348,4.741,4.741,0,0,0,1.069,3.348,3.577,3.577,0,0,0,2.7,1.116A2.992,2.992,0,0,0,155.756,27.282Z" transform="translate(-108.42 -11.1)" fill="rgba(0,0,85,0.5)"/>
      <path id="Path_752" data-name="Path 752" d="M177.847,25.232h1.906l.279,2.092a8.064,8.064,0,0,1,1.86-1.767,3.468,3.468,0,0,1,1.86-.558,2.722,2.722,0,0,1,.6.093l-.233,2.557a3.687,3.687,0,0,0-.79-.093,4,4,0,0,0-1.813.418,3.472,3.472,0,0,0-1.255.976v8.881H177.8v-12.6Z" transform="translate(-124.791 -18.537)" fill="rgba(0,0,85,0.5)"/>
      <path id="Path_753" data-name="Path 753" d="M195.4,13.9h2.325v2.557H195.4Zm0,5.394h2.325V31.9H195.4Z" transform="translate(-134.207 -12.598)" fill="rgba(0,0,85,0.5)"/>
    </g>
    <g id="Group_609" data-name="Group 609" transform="translate(0.3 0.6)">
      <path id="Path_754" data-name="Path 754" d="M9.026.6l15.3,15.3-5.347,5.487L8.7,11.341S4.19,6.552,9.026.6Z" transform="translate(-3.772 -0.6)" fill="url(#linear-gradient)"/>
      <path id="Path_755" data-name="Path 755" d="M.3,37.012,15.459,21.9l5.394,5.394L11.041,37.338S6.252,41.848.3,37.012Z" transform="translate(-0.3 -11.996)" fill="rgba(0,0,85,0.5)"/>
    </g>
  </g>
</svg>
