<svg xmlns="http://www.w3.org/2000/svg" width="313.701" height="73.563" viewBox="0 0 313.701 73.563">
  <g id="Group_630" data-name="Group 630" transform="translate(-277.6 -5615.8)">
    <path id="Path_756" data-name="Path 756" d="M32.79.525,31.853,0l-.937.525L.937,17.838,0,18.4V55.2l.937.525,29.98,17.313.937.525.937-.525L62.77,55.725l.937-.525V18.4l-.937-.525Z" transform="translate(277.6 5615.8)" fill="#fff"/>
    <path id="Path_757" data-name="Path 757" d="M32.79.525,31.853,0l-.937.525L.937,17.838,0,18.4V55.2l.937.525,29.98,17.313.937.525.937-.525L62.77,55.725l.937-.525V18.4l-.937-.525ZM1.874,54.076V19.487L31.853,2.174v16.3l18.737,10.83V33.09l-3.747-2.174V48.942H31.853V71.427Z" transform="translate(277.6 5615.8)" fill="#0c0c5c"/>
    <path id="Path_758" data-name="Path 758" d="M212.891,82.714,207.382,66H199.7l9.256,24.171h7.457L225.782,66h-7.345Z" transform="translate(152.737 5574.533)" fill="#0c0c5c"/>
    <path id="Path_759" data-name="Path 759" d="M292.888,77.192a5.468,5.468,0,0,0,3-1.986,5.36,5.36,0,0,0-.037-6.521,7.192,7.192,0,0,0-3.26-2.136,14.857,14.857,0,0,0-4.909-.749H275.8V90.009h12.442a13.7,13.7,0,0,0,5.022-.824,7.693,7.693,0,0,0,3.335-2.361,5.64,5.64,0,0,0,1.162-3.56,6.255,6.255,0,0,0-1.312-3.972A6.088,6.088,0,0,0,292.888,77.192ZM283,71.234h4.347a2.591,2.591,0,0,1,1.686.525,1.9,1.9,0,0,1,.637,1.462,2,2,0,0,1-.637,1.536,2.413,2.413,0,0,1-1.686.562H283Zm6.521,12.854a3.48,3.48,0,0,1-2.173.6H283V80.3h4.347a3.476,3.476,0,0,1,2.173.525,1.856,1.856,0,0,1,.824,1.574A1.964,1.964,0,0,1,289.516,84.088Z" transform="translate(105.155 5574.658)" fill="#0c0c5c"/>
    <path id="Path_760" data-name="Path 760" d="M360.474,66.411a15,15,0,0,0-13.528,0,12.567,12.567,0,0,0-4.722,4.459,11.988,11.988,0,0,0-1.724,6.408,12.344,12.344,0,0,0,1.724,6.483,11.96,11.96,0,0,0,4.722,4.534,14.7,14.7,0,0,0,13.528,0,11.711,11.711,0,0,0,4.722-4.534,12.6,12.6,0,0,0,1.724-6.483,12.081,12.081,0,0,0-1.724-6.408A11.782,11.782,0,0,0,360.474,66.411Zm-1.686,14.278a6.22,6.22,0,0,1-2.1,2.4,5.012,5.012,0,0,1-2.886.862,5.655,5.655,0,0,1-2.961-.862,6.4,6.4,0,0,1-2.174-2.4,7.2,7.2,0,0,1-.824-3.335,6.672,6.672,0,0,1,.824-3.335,6.023,6.023,0,0,1,2.174-2.361A5.558,5.558,0,0,1,353.8,70.8a5.216,5.216,0,0,1,2.886.862,5.769,5.769,0,0,1,2.061,2.361,7.519,7.519,0,0,1,.75,3.335A6.693,6.693,0,0,1,358.788,80.689Z" transform="translate(64.701 5575.283)" fill="#0c0c5c"/>
    <path id="Path_761" data-name="Path 761" d="M35,63.815l3.747-2.174V79.667h14.99V49.2L35,60.03Z" transform="translate(255.716 5585.038)" fill="#0c0c5c"/>
    <g id="Group_629" data-name="Group 629" transform="translate(442.113 5639.971)">
      <path id="Path_762" data-name="Path 762" d="M443.872,74.919,447.507,66H446.2l-2.923,7.57L440.312,66H439l3.6,8.919Z" transform="translate(-439 -65.438)" fill="#0c0c5c"/>
      <path id="Path_763" data-name="Path 763" d="M463.449,78.171a3.561,3.561,0,0,0,1.8.45,3.482,3.482,0,0,0,2.886-1.387l-.712-.637a2.681,2.681,0,0,1-2.1,1.049,2.243,2.243,0,0,1-1.312-.375,2.084,2.084,0,0,1-.824-1.049l5.1-1.649a3.03,3.03,0,0,0-.937-2.024,3.089,3.089,0,0,0-2.136-.749,3.561,3.561,0,0,0-1.8.45,3.073,3.073,0,0,0-1.2,1.2,3.494,3.494,0,0,0-.412,1.761,3.56,3.56,0,0,0,.45,1.8A3.252,3.252,0,0,0,463.449,78.171ZM463,75.135a2.453,2.453,0,0,1,.6-1.761,2.173,2.173,0,0,1,1.611-.637,1.826,1.826,0,0,1,1.874,1.2l-4.122,1.349v-.15Z" transform="translate(-453.256 -69.064)" fill="#0c0c5c"/>
      <path id="Path_764" data-name="Path 764" d="M484.4,74.923a2.371,2.371,0,0,1,.712-1.536,2.235,2.235,0,0,1,1.686-.525V71.7a3.018,3.018,0,0,0-1.461.375A2.532,2.532,0,0,0,484.4,73.2V71.737h-1.2V78.52h1.2Z" transform="translate(-466.636 -69.002)" fill="#0c0c5c"/>
      <path id="Path_765" data-name="Path 765" d="M501.033,77.234l-.712-.637a2.68,2.68,0,0,1-2.1,1.049,2.243,2.243,0,0,1-1.312-.375,2.084,2.084,0,0,1-.824-1.049l5.1-1.649a3.03,3.03,0,0,0-.937-2.024,3.089,3.089,0,0,0-2.136-.749,3.561,3.561,0,0,0-1.8.45,3.073,3.073,0,0,0-1.2,1.2,3.494,3.494,0,0,0-.412,1.761,3.561,3.561,0,0,0,.45,1.8,2.932,2.932,0,0,0,1.237,1.2,3.56,3.56,0,0,0,1.8.45A3.9,3.9,0,0,0,501.033,77.234Zm-5.172-2.1a2.453,2.453,0,0,1,.6-1.761,2.173,2.173,0,0,1,1.611-.637,1.906,1.906,0,0,1,1.911,1.2l-4.122,1.349Z" transform="translate(-473.827 -69.064)" fill="#0c0c5c"/>
      <path id="Path_766" data-name="Path 766" d="M517.237,74.885a2.2,2.2,0,0,1,.637-1.462,1.977,1.977,0,0,1,1.462-.562,1.671,1.671,0,0,1,1.312.487,1.7,1.7,0,0,1,.487,1.349v3.86h1.2V74.323a2.721,2.721,0,0,0-5.134-1.162V71.737H516V78.52h1.2V74.885Z" transform="translate(-487.144 -69.002)" fill="#0c0c5c"/>
      <rect id="Rectangle_632" data-name="Rectangle 632" width="1.199" height="6.783" transform="translate(37.137 2.736)" fill="#0c0c5c"/>
      <path id="Path_767" data-name="Path 767" d="M538.449,66.074a.68.68,0,0,0,.525-.225.815.815,0,0,0,0-1.124.74.74,0,0,0-.525-.225.68.68,0,0,0-.525.225.815.815,0,0,0,0,1.124A.68.68,0,0,0,538.449,66.074Z" transform="translate(-500.713 -64.5)" fill="#0c0c5c"/>
      <path id="Path_768" data-name="Path 768" d="M550.472,79.42a2.43,2.43,0,0,1-1.686.6,3.773,3.773,0,0,1-1.162-.187,4.209,4.209,0,0,1-1.049-.6l-.525.862a4.583,4.583,0,0,0,2.773.937,4.02,4.02,0,0,0,1.836-.375,2.686,2.686,0,0,0,1.2-1.124,3.133,3.133,0,0,0,.412-1.686V71.737h-1.2v1.237a2.348,2.348,0,0,0-.974-.937,2.859,2.859,0,0,0-1.424-.337,3.321,3.321,0,0,0-1.611.412,2.855,2.855,0,0,0-1.087,1.124,3.982,3.982,0,0,0,0,3.373,2.942,2.942,0,0,0,1.087,1.162,3.216,3.216,0,0,0,1.611.412,2.961,2.961,0,0,0,1.424-.337,2.6,2.6,0,0,0,.974-.937v.937A2.062,2.062,0,0,1,550.472,79.42Zm.337-3.3a2.636,2.636,0,0,1-.749.824,2.29,2.29,0,0,1-1.124.3,2.147,2.147,0,0,1-1.574-.637,2.237,2.237,0,0,1-.6-1.649,2.584,2.584,0,0,1,.3-1.2,2.362,2.362,0,0,1,.787-.824,2.258,2.258,0,0,1,2.249,0,1.994,1.994,0,0,1,.75.824,2.461,2.461,0,0,1,.262,1.2A2.958,2.958,0,0,1,550.809,76.122Z" transform="translate(-505.652 -69.002)" fill="#0c0c5c"/>
      <rect id="Rectangle_633" data-name="Rectangle 633" width="1.199" height="6.783" transform="translate(48.717 2.736)" fill="#0c0c5c"/>
      <path id="Path_769" data-name="Path 769" d="M569.349,66.074a.68.68,0,0,0,.525-.225.815.815,0,0,0,0-1.124.725.725,0,0,0-1.049,0,.815.815,0,0,0,0,1.124A.68.68,0,0,0,569.349,66.074Z" transform="translate(-520.033 -64.5)" fill="#0c0c5c"/>
      <path id="Path_770" data-name="Path 770" d="M583.633,78.483v-4.16a2.721,2.721,0,0,0-5.134-1.162V71.737h-1.2V78.52h1.2V74.885a2.2,2.2,0,0,1,.637-1.462,1.977,1.977,0,0,1,1.462-.562,1.671,1.671,0,0,1,1.312.487A1.7,1.7,0,0,1,582.4,74.7v3.86h1.237Z" transform="translate(-525.472 -69.002)" fill="#0c0c5c"/>
      <path id="Path_771" data-name="Path 771" d="M599.7,77.771a3.217,3.217,0,0,0,1.611.412,2.961,2.961,0,0,0,1.424-.337,2.6,2.6,0,0,0,.974-.937v.937a2.031,2.031,0,0,1-.637,1.574,2.43,2.43,0,0,1-1.686.6,3.773,3.773,0,0,1-1.162-.187,4.211,4.211,0,0,1-1.049-.6l-.525.862a4.583,4.583,0,0,0,2.773.937,3.859,3.859,0,0,0,1.8-.375,2.686,2.686,0,0,0,1.2-1.124,3.152,3.152,0,0,0,.45-1.686V71.737h-1.2v1.237a2.348,2.348,0,0,0-.974-.937,2.859,2.859,0,0,0-1.424-.337,3.321,3.321,0,0,0-1.611.412,2.854,2.854,0,0,0-1.087,1.124,3.982,3.982,0,0,0,0,3.373A3.346,3.346,0,0,0,599.7,77.771Zm-.075-4.01a2.362,2.362,0,0,1,.787-.824,2.258,2.258,0,0,1,2.248,0,1.994,1.994,0,0,1,.749.824,2.46,2.46,0,0,1,.262,1.2,2.79,2.79,0,0,1-.262,1.162,2.253,2.253,0,0,1-.749.824,2.29,2.29,0,0,1-1.124.3,2.147,2.147,0,0,1-1.574-.637,2.236,2.236,0,0,1-.6-1.649A2.56,2.56,0,0,1,599.624,73.761Z" transform="translate(-538.54 -69.002)" fill="#0c0c5c"/>
      <path id="Path_772" data-name="Path 772" d="M633,78.545l2.623-6.745h-1.2L632.4,77.384,630.374,71.8H629.1l2.661,6.745Z" transform="translate(-557.861 -69.064)" fill="#0c0c5c"/>
      <path id="Path_773" data-name="Path 773" d="M652.459,78.221a2.623,2.623,0,0,0,1.012-1.012V78.52h1.2V71.737h-1.2v1.312a2.623,2.623,0,0,0-1.012-1.012,3.438,3.438,0,0,0-3.185.112,3.247,3.247,0,0,0-1.162,1.2,3.932,3.932,0,0,0-.412,1.761,3.975,3.975,0,0,0,.412,1.8,3.079,3.079,0,0,0,1.162,1.237,3.152,3.152,0,0,0,1.686.45A3.68,3.68,0,0,0,652.459,78.221Zm-3.26-1.836a2.7,2.7,0,0,1,0-2.473,2.037,2.037,0,0,1,.824-.862,2.438,2.438,0,0,1,2.773.3,2.561,2.561,0,0,1,.712,1.574v.525a2.371,2.371,0,0,1-.712,1.536,2.118,2.118,0,0,1-1.574.6,2.584,2.584,0,0,1-1.2-.3A2.7,2.7,0,0,1,649.2,76.384Z" transform="translate(-569.49 -69.002)" fill="#0c0c5c"/>
      <path id="Path_774" data-name="Path 774" d="M676.334,78.483h1.2v-4.16a2.721,2.721,0,0,0-5.134-1.162V71.737h-1.2V78.52h1.2V74.885a2.2,2.2,0,0,1,.637-1.462,1.977,1.977,0,0,1,1.461-.562,1.671,1.671,0,0,1,1.312.487A1.844,1.844,0,0,1,676.3,74.7v3.785Z" transform="translate(-584.184 -69.002)" fill="#0c0c5c"/>
      <path id="Path_775" data-name="Path 775" d="M450.632,112.4a2.5,2.5,0,0,0-2.623,1.686,2.211,2.211,0,0,0-.825-1.237,2.608,2.608,0,0,0-1.574-.45,2.5,2.5,0,0,0-2.511,1.462v-1.424h-1.2v6.745h1.2v-3.335a2.545,2.545,0,0,1,.562-1.686,1.86,1.86,0,0,1,1.536-.675,1.588,1.588,0,0,1,1.274.487,1.956,1.956,0,0,1,.45,1.349v3.86h1.2v-3.335a2.545,2.545,0,0,1,.562-1.686,1.836,1.836,0,0,1,1.5-.675,1.588,1.588,0,0,1,1.274.487,1.975,1.975,0,0,1,.487,1.349v3.86h1.2v-4.2a2.585,2.585,0,0,0-.675-1.911A2.462,2.462,0,0,0,450.632,112.4Z" transform="translate(-440.813 -94.45)" fill="#0c0c5c"/>
      <path id="Path_776" data-name="Path 776" d="M481.471,113.749a2.623,2.623,0,0,0-1.012-1.012,3.438,3.438,0,0,0-3.185.112,3.247,3.247,0,0,0-1.162,1.2,3.932,3.932,0,0,0-.412,1.761,3.975,3.975,0,0,0,.412,1.8,2.991,2.991,0,0,0,1.124,1.237,3.152,3.152,0,0,0,1.686.45,2.787,2.787,0,0,0,1.5-.375,2.624,2.624,0,0,0,1.012-1.012v1.312h1.2v-6.745h-1.2v1.274Zm0,2.323a2.37,2.37,0,0,1-.712,1.536,2.118,2.118,0,0,1-1.574.6,2.584,2.584,0,0,1-1.2-.3,2.038,2.038,0,0,1-.824-.862,2.7,2.7,0,0,1,0-2.473,1.84,1.84,0,0,1,.824-.862,2.438,2.438,0,0,1,2.773.3,2.56,2.56,0,0,1,.712,1.574Z" transform="translate(-461.947 -94.45)" fill="#0c0c5c"/>
      <path id="Path_777" data-name="Path 777" d="M505.684,107.936H504.3l-3.3,3.335V105.2h-1.2v9.481H501V112.77l1.312-1.349,2.174,3.26h1.424l-2.773-4.122Z" transform="translate(-477.015 -89.948)" fill="#0c0c5c"/>
      <path id="Path_778" data-name="Path 778" d="M522.809,113.15a3.058,3.058,0,0,0-2.1-.749,3.561,3.561,0,0,0-1.8.45,3.073,3.073,0,0,0-1.2,1.2,3.494,3.494,0,0,0-.412,1.761,3.56,3.56,0,0,0,.45,1.8,2.933,2.933,0,0,0,1.237,1.2,3.561,3.561,0,0,0,1.8.45,3.482,3.482,0,0,0,2.885-1.387l-.712-.637a2.68,2.68,0,0,1-2.1,1.049,2.243,2.243,0,0,1-1.312-.375,2.3,2.3,0,0,1-.824-1.049l5.1-1.649A3.277,3.277,0,0,0,522.809,113.15Zm-4.347,2.773v-.15a2.453,2.453,0,0,1,.6-1.761,2.173,2.173,0,0,1,1.611-.637,1.826,1.826,0,0,1,1.874,1.2Z" transform="translate(-487.957 -94.45)" fill="#0c0c5c"/>
      <path id="Path_779" data-name="Path 779" d="M540.336,113.632c-.412,0-.637-.262-.637-.824V105.2h-1.2v7.757a1.962,1.962,0,0,0,.412,1.312,1.475,1.475,0,0,0,1.087.487,2.144,2.144,0,0,0,1.2-.375l-.187-.974A1.423,1.423,0,0,1,540.336,113.632Z" transform="translate(-501.213 -89.948)" fill="#0c0c5c"/>
      <path id="Path_780" data-name="Path 780" d="M553.171,113.749a2.623,2.623,0,0,0-1.012-1.012,3.439,3.439,0,0,0-3.185.112,3.247,3.247,0,0,0-1.162,1.2,3.932,3.932,0,0,0-.412,1.761,3.975,3.975,0,0,0,.412,1.8,3.079,3.079,0,0,0,1.162,1.237,3.152,3.152,0,0,0,1.686.45,2.876,2.876,0,0,0,1.5-.375,2.4,2.4,0,0,0,1.012-1.012v1.312h1.2v-6.745h-1.2Zm0,2.323a2.37,2.37,0,0,1-.712,1.536,2.118,2.118,0,0,1-1.574.6,2.325,2.325,0,0,1-1.162-.3,2.037,2.037,0,0,1-.824-.862,2.7,2.7,0,0,1,0-2.473,2.037,2.037,0,0,1,.824-.862,2.434,2.434,0,0,1,1.162-.3,2.118,2.118,0,0,1,1.574.6,2.56,2.56,0,0,1,.712,1.574Z" transform="translate(-506.777 -94.45)" fill="#0c0c5c"/>
      <path id="Path_781" data-name="Path 781" d="M575.471,113.749a2.623,2.623,0,0,0-1.012-1.012,3.438,3.438,0,0,0-3.185.112,3.247,3.247,0,0,0-1.162,1.2,3.932,3.932,0,0,0-.412,1.761,3.977,3.977,0,0,0,.412,1.8,3.08,3.08,0,0,0,1.162,1.237,3.152,3.152,0,0,0,1.686.45,2.876,2.876,0,0,0,1.5-.375,2.4,2.4,0,0,0,1.012-1.012v1.312h1.2v-6.745h-1.2Zm0,2.323a2.37,2.37,0,0,1-.712,1.536,2.119,2.119,0,0,1-1.574.6,2.584,2.584,0,0,1-1.2-.3,2.287,2.287,0,0,1-.824-.862,2.7,2.7,0,0,1,0-2.473,2.038,2.038,0,0,1,.824-.862,2.438,2.438,0,0,1,2.773.3,2.56,2.56,0,0,1,.712,1.574Z" transform="translate(-520.721 -94.45)" fill="#0c0c5c"/>
      <path id="Path_782" data-name="Path 782" d="M594.2,113.9v-1.462H593v6.745h1.2v-3.56a2.37,2.37,0,0,1,.712-1.536,2.235,2.235,0,0,1,1.686-.525V112.4a3.017,3.017,0,0,0-1.462.375A2.8,2.8,0,0,0,594.2,113.9Z" transform="translate(-535.289 -94.45)" fill="#0c0c5c"/>
      <path id="Path_783" data-name="Path 783" d="M608.522,115.56a8,8,0,0,0-1.162-.412,11.108,11.108,0,0,1-1.124-.412.725.725,0,0,1-.375-.637.6.6,0,0,1,.337-.6,1.548,1.548,0,0,1,.862-.187,3.087,3.087,0,0,1,.974.15,4.191,4.191,0,0,1,.937.412l.45-.9a5.483,5.483,0,0,0-1.049-.487,4.441,4.441,0,0,0-1.2-.187,2.838,2.838,0,0,0-1.724.487,1.646,1.646,0,0,0-.674,1.424,1.7,1.7,0,0,0,.3,1.012,2.175,2.175,0,0,0,.712.6c.3.112.675.262,1.087.375a5.358,5.358,0,0,1,1.162.45.794.794,0,0,1,0,1.349,1.734,1.734,0,0,1-.937.225,3.555,3.555,0,0,1-1.2-.225,4.045,4.045,0,0,1-1.049-.6l-.45.862a3.126,3.126,0,0,0,1.2.675,5.008,5.008,0,0,0,1.461.262,3.076,3.076,0,0,0,1.8-.487,1.653,1.653,0,0,0,.712-1.462,1.79,1.79,0,0,0-1.049-1.686Z" transform="translate(-542.417 -94.387)" fill="#0c0c5c"/>
      <path id="Path_784" data-name="Path 784" d="M636.609,113.15a3.059,3.059,0,0,0-2.1-.749,3.56,3.56,0,0,0-1.8.45,3.072,3.072,0,0,0-1.2,1.2,3.493,3.493,0,0,0-.412,1.761,3.561,3.561,0,0,0,.45,1.8,2.933,2.933,0,0,0,1.237,1.2,3.56,3.56,0,0,0,1.8.45,3.482,3.482,0,0,0,2.886-1.387l-.712-.637a2.681,2.681,0,0,1-2.1,1.049,2.243,2.243,0,0,1-1.312-.375,2.3,2.3,0,0,1-.824-1.049l5.1-1.649A3.278,3.278,0,0,0,636.609,113.15Zm-4.347,2.773v-.15a2.454,2.454,0,0,1,.6-1.761,2.173,2.173,0,0,1,1.611-.637,1.906,1.906,0,0,1,1.911,1.2Z" transform="translate(-559.111 -94.45)" fill="#0c0c5c"/>
      <path id="Path_785" data-name="Path 785" d="M656.185,112.4a2.573,2.573,0,0,0-2.586,1.462v-1.424h-1.2v6.745h1.2v-3.635a2.2,2.2,0,0,1,.637-1.462,1.977,1.977,0,0,1,1.461-.562,1.671,1.671,0,0,1,1.312.487,1.908,1.908,0,0,1,.487,1.349v3.86h1.2v-4.2a2.585,2.585,0,0,0-.674-1.911A2.483,2.483,0,0,0,656.185,112.4Z" transform="translate(-572.429 -94.45)" fill="#0c0c5c"/>
      <path id="Path_786" data-name="Path 786" d="M686.824,115.57c-.562,0-.862-.45-.862-1.312V111h2.1v-.9H686v-1.8h-1.2v6.221a2.305,2.305,0,0,0,.487,1.611,1.7,1.7,0,0,0,1.312.562,3.208,3.208,0,0,0,1.574-.487l-.337-.937A1.759,1.759,0,0,1,686.824,115.57Z" transform="translate(-592.687 -91.886)" fill="#0c0c5c"/>
      <path id="Path_787" data-name="Path 787" d="M701.471,113.749a2.624,2.624,0,0,0-1.012-1.012,3.439,3.439,0,0,0-3.185.112,2.982,2.982,0,0,0-1.162,1.2,3.934,3.934,0,0,0-.412,1.761,3.977,3.977,0,0,0,.412,1.8,2.845,2.845,0,0,0,1.162,1.237,3.152,3.152,0,0,0,1.686.45,2.787,2.787,0,0,0,1.5-.375,2.624,2.624,0,0,0,1.012-1.012v1.312h1.2v-6.745h-1.2Zm0,2.323a2.371,2.371,0,0,1-.712,1.536,2.118,2.118,0,0,1-1.574.6,2.584,2.584,0,0,1-1.2-.3,2.287,2.287,0,0,1-.824-.862,2.7,2.7,0,0,1,0-2.473,1.84,1.84,0,0,1,.824-.862,2.438,2.438,0,0,1,2.773.3,2.561,2.561,0,0,1,.712,1.574Z" transform="translate(-599.503 -94.45)" fill="#0c0c5c"/>
      <path id="Path_788" data-name="Path 788" d="M723.158,112.5h-1.312l-1.724,2.473-1.686-2.473h-1.349l2.249,3.3-2.436,3.448h1.349l1.874-2.661,1.8,2.661h1.386l-2.4-3.448Z" transform="translate(-612.758 -94.512)" fill="#0c0c5c"/>
      <path id="Path_789" data-name="Path 789" d="M741.171,113.749a2.623,2.623,0,0,0-1.012-1.012,3.439,3.439,0,0,0-3.185.112,3.247,3.247,0,0,0-1.162,1.2,3.931,3.931,0,0,0-.412,1.761,3.975,3.975,0,0,0,.412,1.8,3.079,3.079,0,0,0,1.162,1.237,3.152,3.152,0,0,0,1.686.45,2.876,2.876,0,0,0,1.5-.375,2.4,2.4,0,0,0,1.012-1.012v1.312h1.2v-6.745h-1.2Zm0,2.323a2.37,2.37,0,0,1-.712,1.536,2.118,2.118,0,0,1-1.574.6,2.584,2.584,0,0,1-1.2-.3,2.288,2.288,0,0,1-.824-.862,2.7,2.7,0,0,1,0-2.473,2.039,2.039,0,0,1,.824-.862,2.472,2.472,0,0,1,1.2-.3,2.118,2.118,0,0,1,1.574.6,2.56,2.56,0,0,1,.712,1.574Z" transform="translate(-624.325 -94.45)" fill="#0c0c5c"/>
      <path id="Path_790" data-name="Path 790" d="M760.561,115.57c-.562,0-.862-.45-.862-1.312V111h2.1v-.9h-2.1v-1.8h-1.2v6.221a2.3,2.3,0,0,0,.487,1.611,1.7,1.7,0,0,0,1.312.562,3.208,3.208,0,0,0,1.574-.487l-.3-.937A1.759,1.759,0,0,1,760.561,115.57Z" transform="translate(-638.768 -91.886)" fill="#0c0c5c"/>
      <path id="Path_791" data-name="Path 791" d="M775.109,113.15a3.126,3.126,0,0,0-2.1-.749,3.561,3.561,0,0,0-1.8.45,3.073,3.073,0,0,0-1.2,1.2,3.494,3.494,0,0,0-.412,1.761,3.562,3.562,0,0,0,.45,1.8,2.934,2.934,0,0,0,1.237,1.2,3.561,3.561,0,0,0,1.8.45,3.482,3.482,0,0,0,2.886-1.387l-.712-.637a2.68,2.68,0,0,1-2.1,1.049,2.243,2.243,0,0,1-1.312-.375,2.3,2.3,0,0,1-.824-1.049l5.1-1.649A3.475,3.475,0,0,0,775.109,113.15Zm-4.347,2.773v-.15a2.453,2.453,0,0,1,.6-1.761,2.173,2.173,0,0,1,1.611-.637,1.826,1.826,0,0,1,1.874,1.2Z" transform="translate(-645.709 -94.45)" fill="#0c0c5c"/>
      <path id="Path_792" data-name="Path 792" d="M795.522,115.835a2.545,2.545,0,0,1-.562,1.686,1.836,1.836,0,0,1-1.5.675,1.588,1.588,0,0,1-1.274-.487,1.844,1.844,0,0,1-.487-1.349V112.5h-1.2v4.2a2.585,2.585,0,0,0,.675,1.911,2.483,2.483,0,0,0,1.836.712,2.554,2.554,0,0,0,2.511-1.462v1.424h1.2v-6.745h-1.2Z" transform="translate(-658.776 -94.512)" fill="#0c0c5c"/>
      <path id="Path_793" data-name="Path 793" d="M813.1,113.9v-1.462h-1.2v6.745h1.2v-3.56a2.2,2.2,0,0,1,.712-1.536,2.235,2.235,0,0,1,1.686-.525V112.4a3.017,3.017,0,0,0-1.461.375A2.532,2.532,0,0,0,813.1,113.9Z" transform="translate(-672.157 -94.45)" fill="#0c0c5c"/>
      <path id="Path_794" data-name="Path 794" d="M828.172,116.16a2.306,2.306,0,0,0-.75-.6,8,8,0,0,0-1.162-.412,11.11,11.11,0,0,1-1.124-.412.725.725,0,0,1-.375-.637.6.6,0,0,1,.337-.6,1.475,1.475,0,0,1,.862-.187,3.088,3.088,0,0,1,.974.15,4.186,4.186,0,0,1,.937.412l.45-.9a5.479,5.479,0,0,0-1.049-.487,4.223,4.223,0,0,0-1.2-.187,2.838,2.838,0,0,0-1.724.487,1.646,1.646,0,0,0-.674,1.424,1.706,1.706,0,0,0,.3,1.012,2.175,2.175,0,0,0,.712.6,7.8,7.8,0,0,0,1.124.375,4.281,4.281,0,0,1,1.124.45.794.794,0,0,1,0,1.349,1.734,1.734,0,0,1-.937.225,3.4,3.4,0,0,1-1.2-.225,4.047,4.047,0,0,1-1.049-.6l-.45.862a3.126,3.126,0,0,0,1.2.675,5.009,5.009,0,0,0,1.462.262,3.077,3.077,0,0,0,1.8-.487,1.654,1.654,0,0,0,.712-1.462A1.868,1.868,0,0,0,828.172,116.16Z" transform="translate(-679.285 -94.387)" fill="#0c0c5c"/>
    </g>
  </g>
</svg>
